<svg xmlns="http://www.w3.org/2000/svg" width="248.46" height="277.992" viewBox="0 0 248.46 277.992">
  <g id="Group_112" data-name="Group 112" transform="translate(0 0)">
    <path id="Path_64" data-name="Path 64" d="M446,406.871c4.863,35.239-23.3,68.518-63.667,76.484q-2.639.521-5.353.9-2.994.415-5.954.63c-40.782,3-76.6-21.349-81.445-56.426a57.4,57.4,0,0,1-.535-6.865h.025c-.163-10.743,9.19-20.426,21.943-22.186a27.445,27.445,0,0,1,16.9,2.918q1.657,1.216,3.444,2.3a54.188,54.188,0,0,0,35.407,6.848l.029,0c13.906-1.927,25.782-8.6,33.609-17.751l.08-.094a27.071,27.071,0,0,1,16.889-8.895c12.775-1.764,24.42,5.052,27.147,15.468l.152-.033A57.341,57.341,0,0,1,446,406.871Z" transform="translate(-224.559 -207.14)" fill="#f25f5c"/>
    <path id="Path_65" data-name="Path 65" d="M508.1,386.269l-.9-2.735a9.062,9.062,0,0,0-11.445-5.767l-27.784,9.164L457.581,355.44a73.629,73.629,0,0,0-92.99-46.863l-37.7,12.436A73.63,73.63,0,0,0,280.027,414L290.415,445.5l-24.091,7.946a9.063,9.063,0,0,0-5.767,11.445l.9,2.735A9.065,9.065,0,0,0,272.9,473.39l229.428-75.678A9.059,9.059,0,0,0,508.1,386.269Z" transform="translate(-260.098 -304.851)" fill="#264348"/>
    <path id="Path_66" data-name="Path 66" d="M360.527,360.874a35.82,35.82,0,1,0,35.832,35.832A35.817,35.817,0,0,0,360.527,360.874Zm0,53.688a17.868,17.868,0,1,1,17.88-17.856A17.869,17.869,0,0,1,360.527,414.562Z" transform="translate(-180.777 -236.082)" fill="#264348"/>
  </g>
</svg>
