<svg xmlns="http://www.w3.org/2000/svg" width="198.635" height="56.395" viewBox="0 0 198.635 56.395">
  <g id="Group_86" data-name="Group 86" transform="translate(-260.098 -304.852)">
    <g id="Group_84" data-name="Group 84" transform="translate(320.086 316.272)">
      <path id="Path_56" data-name="Path 56" d="M397.8,375.98q0,.845-.812.844h-3.333a.767.767,0,0,1-.577-.244.831.831,0,0,1-.235-.6V355.448a.833.833,0,0,1,.235-.6.771.771,0,0,1,.577-.244h3.333q.811,0,.812.844v1.644a12.335,12.335,0,0,1,2.841-1.845,7.323,7.323,0,0,1,3.141-.733,6.152,6.152,0,0,1,3.055.889,7.182,7.182,0,0,1,2.542,2.444,11.646,11.646,0,0,1,3.333-2.444,8.543,8.543,0,0,1,3.76-.889,7.208,7.208,0,0,1,2.756.533,6.7,6.7,0,0,1,2.264,1.511,7.455,7.455,0,0,1,1.538,2.333,7.588,7.588,0,0,1,.577,3V375.98q0,.845-.812.844h-3.333a.767.767,0,0,1-.577-.244.831.831,0,0,1-.235-.6v-12.4a4.542,4.542,0,0,0-.77-2.822,2.681,2.681,0,0,0-2.264-1,4.551,4.551,0,0,0-1.816.377,4.979,4.979,0,0,0-2.606,2.555,4.44,4.44,0,0,0-.406,1.867l-.086,11.421q0,.845-.812.844h-3.333a.767.767,0,0,1-.577-.244.832.832,0,0,1-.235-.6v-12.4a4.542,4.542,0,0,0-.769-2.822,2.681,2.681,0,0,0-2.264-1,4.547,4.547,0,0,0-1.816.377,4.973,4.973,0,0,0-2.606,2.555,4.441,4.441,0,0,0-.406,1.867Z" transform="translate(-392.849 -343.494)" fill="#f25f5c"/>
      <path id="Path_57" data-name="Path 57" d="M468.018,337.734a2.84,2.84,0,0,1,.812-2.044,2.71,2.71,0,0,1,3.93,0,2.844,2.844,0,0,1,.812,2.044,2.768,2.768,0,0,1-.812,2.022,2.76,2.76,0,0,1-3.93,0A2.765,2.765,0,0,1,468.018,337.734Zm.3,6.933a.879.879,0,0,1,.214-.6.7.7,0,0,1,.555-.244h3.375a.772.772,0,0,1,.577.244.835.835,0,0,1,.235.6V365.2a.834.834,0,0,1-.235.6.769.769,0,0,1-.577.244h-3.375a.7.7,0,0,1-.555-.244.877.877,0,0,1-.214-.6Z" transform="translate(-434.05 -332.713)" fill="#f25f5c"/>
      <path id="Path_58" data-name="Path 58" d="M494.721,375.98q0,.845-.812.844h-3.333a.766.766,0,0,1-.577-.244.83.83,0,0,1-.235-.6V355.448a.831.831,0,0,1,.235-.6.769.769,0,0,1,.577-.244h3.333q.811,0,.812.844v1.644a12.3,12.3,0,0,1,2.863-1.822,7.548,7.548,0,0,1,3.2-.756,6.913,6.913,0,0,1,2.777.555,6.425,6.425,0,0,1,2.2,1.555,7.267,7.267,0,0,1,1.432,2.333,8.112,8.112,0,0,1,.513,2.933V375.98q0,.845-.812.844h-3.333a.766.766,0,0,1-.577-.244.83.83,0,0,1-.235-.6v-12.4a4.372,4.372,0,0,0-.812-2.822,2.8,2.8,0,0,0-2.307-1,4.547,4.547,0,0,0-1.816.377,4.978,4.978,0,0,0-2.606,2.555,4.44,4.44,0,0,0-.406,1.867Z" transform="translate(-445.97 -343.494)" fill="#f25f5c"/>
      <path id="Path_59" data-name="Path 59" d="M544.236,363.686q.769.578,1.56,1.222a9.934,9.934,0,0,1,1.453,1.466,7.923,7.923,0,0,1,1.089,1.8,5.508,5.508,0,0,1,.428,2.222,7.127,7.127,0,0,1-.428,2.4,5.087,5.087,0,0,1-1.41,2.089,6.5,6.5,0,0,1-2.307,1.555,8.679,8.679,0,0,1-2.991.445,8.858,8.858,0,0,1-3.632-.867,14.945,14.945,0,0,1-3.546-2.244.928.928,0,0,1-.256-.533.732.732,0,0,1,.171-.578l1.965-2.888a.755.755,0,0,1,1.111-.133q.982.756,2.094,1.511a4.234,4.234,0,0,0,2.436.756,1.918,1.918,0,0,0,1.175-.4,1.4,1.4,0,0,0,.534-1.2q0-.533-.9-1.311t-1.88-1.489a20.788,20.788,0,0,1-3.333-2.844,8.826,8.826,0,0,1-1.6-2.2,5.732,5.732,0,0,1-.534-2.555,5.115,5.115,0,0,1,.555-2.4,5.686,5.686,0,0,1,1.453-1.8,6.308,6.308,0,0,1,2.051-1.111,7.639,7.639,0,0,1,2.393-.378,10.111,10.111,0,0,1,5.041,1.378.816.816,0,0,1,.3,1.111l-1.41,3.022a.816.816,0,0,1-.406.444.656.656,0,0,1-.577,0,14.556,14.556,0,0,0-1.6-.733,3.659,3.659,0,0,0-1.26-.244,1.9,1.9,0,0,0-.919.244.7.7,0,0,0-.449.6,1.669,1.669,0,0,0,.684,1.378q.513.445,1.132.911T544.236,363.686Z" transform="translate(-470.319 -343.332)" fill="#f25f5c"/>
      <path id="Path_60" data-name="Path 60" d="M570.228,347.47a.878.878,0,0,1,.213-.6.7.7,0,0,1,.555-.244h3.162V340.8a.833.833,0,0,1,.235-.6.772.772,0,0,1,.577-.244H578.3q.811,0,.812.845v5.822h3.76a.705.705,0,0,1,.555.244.881.881,0,0,1,.214.6v3.289a.8.8,0,0,1-.214.578.735.735,0,0,1-.555.222h-3.76V368q0,.845-.812.844h-3.333a.768.768,0,0,1-.577-.244.832.832,0,0,1-.235-.6V351.558H571a.733.733,0,0,1-.555-.222.8.8,0,0,1-.213-.578Z" transform="translate(-490.073 -335.515)" fill="#f25f5c"/>
      <path id="Path_61" data-name="Path 61" d="M618.8,359.581a.8.8,0,0,1-.427.489.708.708,0,0,1-.641-.044,4.267,4.267,0,0,0-.833-.311,4,4,0,0,0-1.047-.133,4.183,4.183,0,0,0-1.794.4,5.063,5.063,0,0,0-1.517,1.089,5.212,5.212,0,0,0-1.047,1.6,4.817,4.817,0,0,0-.385,1.889l-.085,11.421a.879.879,0,0,1-.214.6.7.7,0,0,1-.555.244h-3.376a.766.766,0,0,1-.577-.244.832.832,0,0,1-.235-.6V355.448a.833.833,0,0,1,.235-.6.77.77,0,0,1,.577-.244h3.376a.706.706,0,0,1,.555.244.881.881,0,0,1,.214.6v1.2a12.6,12.6,0,0,1,2.649-1.533,7.669,7.669,0,0,1,3.034-.6,6.046,6.046,0,0,1,2.906.667.816.816,0,0,1,.385,1.022Z" transform="translate(-509.715 -343.494)" fill="#f25f5c"/>
      <path id="Path_62" data-name="Path 62" d="M642.621,368.2a5.874,5.874,0,0,0,1.816,2.533,4.343,4.343,0,0,0,2.8.977,6.287,6.287,0,0,0,2.222-.4,5.054,5.054,0,0,0,1.794-1.111.775.775,0,0,1,.577-.2.8.8,0,0,1,.534.244l2.435,2.4a.828.828,0,0,1,0,1.111,9.227,9.227,0,0,1-3.333,2.356,10.908,10.908,0,0,1-4.23.8,9.694,9.694,0,0,1-3.952-.8,9.6,9.6,0,0,1-3.183-2.267,10.78,10.78,0,0,1-2.307-3.689,12.628,12.628,0,0,1-.812-4.533,11.591,11.591,0,0,1,3.012-7.866,10.192,10.192,0,0,1,3.269-2.378,9.479,9.479,0,0,1,4.016-.866,8.838,8.838,0,0,1,3.653.756,9.424,9.424,0,0,1,2.97,2.089,9.171,9.171,0,0,1,1.068,1.244,8.035,8.035,0,0,1,.9,1.644,11.278,11.278,0,0,1,.62,2.155,14.869,14.869,0,0,1,.235,2.778,22.787,22.787,0,0,1-.128,2.311.708.708,0,0,1-.77.711Zm4.529-8.488a4.283,4.283,0,0,0-2.948,1.022,5.5,5.5,0,0,0-1.624,2.533h8.973a6.129,6.129,0,0,0-1.56-2.489A3.888,3.888,0,0,0,647.15,359.714Z" transform="translate(-526.662 -343.494)" fill="#f25f5c"/>
      <path id="Path_63" data-name="Path 63" d="M688.7,330.925a.761.761,0,0,1,.235-.578.807.807,0,0,1,.577-.222h3.333a.811.811,0,0,1,.577.222.763.763,0,0,1,.235.578v31.687q0,.845-.812.844h-3.333a.766.766,0,0,1-.577-.244.832.832,0,0,1-.235-.6Z" transform="translate(-555.01 -330.125)" fill="#f25f5c"/>
    </g>
    <g id="Group_85" data-name="Group 85" transform="translate(260.098 304.851)">
      <path id="Path_64" data-name="Path 64" d="M320.89,389c.986,7.149-4.727,13.9-12.916,15.516q-.535.106-1.086.182-.607.084-1.208.128c-8.273.609-15.54-4.331-16.522-11.447a11.646,11.646,0,0,1-.108-1.393h.005c-.033-2.179,1.864-4.144,4.451-4.5a5.568,5.568,0,0,1,3.428.592q.336.247.7.466a10.993,10.993,0,0,0,7.183,1.389h.006a10.919,10.919,0,0,0,6.818-3.6l.016-.019a5.492,5.492,0,0,1,3.426-1.8c2.592-.358,4.954,1.025,5.507,3.138l.031-.007A11.628,11.628,0,0,1,320.89,389Z" transform="translate(-275.967 -348.481)" fill="#f25f5c"/>
      <path id="Path_65" data-name="Path 65" d="M310.409,321.368l-.183-.555a1.838,1.838,0,0,0-2.322-1.17l-5.636,1.859-2.107-6.388a14.937,14.937,0,0,0-18.864-9.507l-7.649,2.523a14.937,14.937,0,0,0-9.506,18.864l2.107,6.389-4.887,1.612a1.839,1.839,0,0,0-1.17,2.322l.183.555a1.839,1.839,0,0,0,2.322,1.17l46.543-15.352A1.838,1.838,0,0,0,310.409,321.368Z" transform="translate(-260.098 -304.851)" fill="#264348"/>
      <path id="Path_66" data-name="Path 66" d="M331.982,360.874a7.267,7.267,0,1,0,7.269,7.269A7.266,7.266,0,0,0,331.982,360.874Zm0,10.891a3.625,3.625,0,1,1,3.627-3.622A3.625,3.625,0,0,1,331.982,371.765Z" transform="translate(-295.517 -335.558)" fill="#264348"/>
    </g>
  </g>
</svg>
