<svg xmlns="http://www.w3.org/2000/svg" width="75.278" height="75.278" viewBox="0 0 75.278 75.278">
  <defs>
    <style>
      .cls-1 {
        fill: #f25f5c;
      }

      .cls-2 {
        fill: none;
        stroke: #264348;
        stroke-miterlimit: 10;
        stroke-width: 5px;
      }

      .cls-3 {
        fill: #2de1c2;
      }
    </style>
  </defs>
  <g id="Group_281" data-name="Group 281" transform="translate(1490.406 -2877.364)">
    <rect id="Rectangle_1183" data-name="Rectangle 1183" class="cls-1" width="75.278" height="75.278" transform="translate(-1490.406 2877.364)"/>
    <g id="Group_246" data-name="Group 246" transform="translate(-1604.881 2682.562)">
      <g id="Group_194" data-name="Group 194">
        <path id="Path_1247" data-name="Path 1247" class="cls-2" d="M152.114,206.576a25.864,25.864,0,0,0,0,51.729,4.305,4.305,0,0,0,4.311-4.311,4.213,4.213,0,0,0-1.121-2.888,4.317,4.317,0,0,1,3.233-7.171h5.073a14.374,14.374,0,0,0,14.369-14.369C177.979,216.864,166.4,206.576,152.114,206.576Z"/>
      </g>
      <path id="Path_1248" data-name="Path 1248" class="cls-3" d="M143.6,238.813a6.21,6.21,0,1,0,6.212,6.212A6.21,6.21,0,0,0,143.6,238.813Zm0,9.308a3.1,3.1,0,1,1,3.1-3.1A3.1,3.1,0,0,1,143.6,248.121Z"/>
    </g>
  </g>
</svg>
