<svg xmlns="http://www.w3.org/2000/svg" width="75.278" height="75.278" viewBox="0 0 75.278 75.278">
  <defs>
    <style>
      .cls-1 {
        fill: #ffe066;
      }

      .cls-2 {
        fill: #264348;
      }

      .cls-3 {
        fill: #f25f5c;
      }
    </style>
  </defs>
  <g id="Group_282" data-name="Group 282" transform="translate(1404.965 -2877.364)">
    <rect id="Rectangle_1181" data-name="Rectangle 1181" class="cls-1" width="75.278" height="75.278" transform="translate(-1404.965 2877.364)"/>
    <g id="Group_247" data-name="Group 247" transform="translate(-1604.881 2682.562)">
      <path id="Path_1249" data-name="Path 1249" class="cls-2" d="M254.038,214.757l-4.524-4.188-12.6,5.861,0-3.3H226.412v7.894a12.079,12.079,0,0,0-6.829,10.881v30.079h24.164V231.907a12.083,12.083,0,0,0-6.829-10.881v-.683l13.392,8.867,3.96-4.686L240.2,218.385Zm-31.3,44.077V233.483H240.6v25.352H222.734Zm17.718-28.5H222.877a8.984,8.984,0,0,1,5.408-6.692h6.76A8.981,8.981,0,0,1,240.452,230.331Zm-6.686-9.844h-4.2v-4.2h4.2v4.2Z"/>
    </g>
    <path id="Path_1307" data-name="Path 1307" class="cls-3" d="M251.618,209.015a12.211,12.211,0,1,0,16.711,4.375A12.209,12.209,0,0,0,251.618,209.015Zm9.242,15.8a6.091,6.091,0,1,1,2.187-8.332A6.092,6.092,0,0,1,260.86,224.812Z" transform="translate(-1604.881 2682.562)"/>
  </g>
</svg>
