<svg xmlns="http://www.w3.org/2000/svg" width="75.278" height="75.278" viewBox="0 0 75.278 75.278">
  <defs>
    <style>
      .cls-1 {
        fill: #61e8e1;
      }

      .cls-2 {
        fill: none;
        stroke: #264348;
        stroke-miterlimit: 10;
        stroke-width: 3px;
      }

      .cls-3 {
        fill: #f25f5c;
      }
    </style>
  </defs>
  <g id="Group_292" data-name="Group 292" transform="translate(1574 -3127.526)">
    <rect id="Rectangle_1189" data-name="Rectangle 1189" class="cls-1" width="75.278" height="75.278" transform="translate(-1574 3127.526)"/>
    <g id="Group_257" data-name="Group 257" transform="translate(-25469 1264)">
      <path id="Path_1280" data-name="Path 1280" class="cls-2" d="M63.827,480.1c0,6.191-10.005,6.277-8.132,11.159,1.6,4.171,11.5-.459,12.764,3.592,1.307,4.2-7.184,3.4-7.181,6.829,0,4.445,10.009,1.947,10.009,6.929,0,4.815-4.2,4.28-4.2,11.636" transform="translate(23864.119 1418.562)"/>
      <path id="Path_1281" data-name="Path 1281" class="cls-3" d="M64.358,461.892A12.209,12.209,0,0,0,59.99,478.6a12.632,12.632,0,0,0,11.888,5.97,10.685,10.685,0,0,0,4.811-1.6c4.383-2.806,8.194-10.185,4.38-16.7A12.211,12.211,0,0,0,64.358,461.892Zm9.241,15.8a6.091,6.091,0,1,1,2.188-8.332A6.09,6.09,0,0,1,73.6,477.689Z" transform="translate(23864.119 1418.562)"/>
      <path id="Path_1282" data-name="Path 1282" class="cls-3" d="M66.41,488.545c-.859-.133-1.783-1.413-2.362-3.115-1.075.992-2.278,1.375-3.058.868-.72-.471-.892-1.578-.541-2.844-1.528.111-2.826-.189-3.282-.837-.675-.961.739-2.366,3.143-3.11a8.3,8.3,0,0,1,4.669-.22c.013,0,.013,0,.022,0l.118.038a2.074,2.074,0,0,0,.219.1c.043.026.091.044.133.071a2.328,2.328,0,0,1,.338.327c.114.177.234.287.135.143a8.379,8.379,0,0,1,1.853,4.352C68.187,486.859,67.568,488.746,66.41,488.545Z" transform="translate(23864.119 1418.562)"/>
    </g>
  </g>
</svg>
