<svg xmlns="http://www.w3.org/2000/svg" width="75.278" height="75.278" viewBox="0 0 75.278 75.278">
  <defs>
    <style>
      .cls-1 {
        fill: #2de1c2;
      }

      .cls-2 {
        fill: none;
        stroke: #264348;
        stroke-miterlimit: 10;
        stroke-width: 5px;
      }

      .cls-3 {
        fill: #ffe066;
      }

      .cls-4 {
        fill: #f25f5c;
      }
    </style>
  </defs>
  <g id="Group_275" data-name="Group 275" transform="translate(1404.625 -2712.329)">
    <g id="Group_273" data-name="Group 273">
      <rect id="Rectangle_1175" data-name="Rectangle 1175" class="cls-1" width="75.278" height="75.278" transform="translate(-1404.625 2712.329)"/>
      <rect id="Rectangle_1179" data-name="Rectangle 1179" class="cls-2" width="46.804" height="25.654" transform="translate(-1390.389 2742.657)"/>
      <g id="Group_243" data-name="Group 243" transform="translate(-1604.881 2682.562)">
        <path id="Path_1237" data-name="Path 1237" class="cls-3" d="M226.37,65.561a7.361,7.361,0,1,0,7.363,7.363A7.36,7.36,0,0,0,226.37,65.561Zm0,11.032a3.672,3.672,0,1,1,3.674-3.669A3.672,3.672,0,0,1,226.37,76.593Z"/>
        <path id="Path_1238" data-name="Path 1238" class="cls-3" d="M249.414,65.561a7.361,7.361,0,1,0,7.363,7.363A7.36,7.36,0,0,0,249.414,65.561Zm0,11.032a3.672,3.672,0,1,1,3.674-3.669A3.672,3.672,0,0,1,249.414,76.593Z"/>
      </g>
      <path id="Path_1302" data-name="Path 1302" class="cls-2" d="M226.372,60.094v-7.3h23.045v7.3" transform="translate(-1604.881 2682.562)"/>
    </g>
    <path id="Path_1303" data-name="Path 1303" class="cls-4" d="M220.585,40.974a5.6,5.6,0,0,0-2.681-1.421,6.122,6.122,0,0,1-1.918-.834l-.1-.073a2.674,2.674,0,0,1-.821-.8.606.606,0,0,0-.758-.312.6.6,0,0,0-.363.733l3.068,10.253a3.47,3.47,0,0,0-1.867.045,2.756,2.756,0,0,0-2.188,3.162c.38,1.27,1.98,1.915,3.566,1.441s2.568-1.893,2.188-3.163l-3-10.033a8.614,8.614,0,0,0,1.839.728,4.621,4.621,0,0,1,2.153,1.087,2.825,2.825,0,0,1,.683,1.235,4.9,4.9,0,0,1-.2,3,.6.6,0,0,0,1.091.5,6.135,6.135,0,0,0,.281-3.768A3.983,3.983,0,0,0,220.585,40.974Z" transform="translate(-1604.881 2682.562)"/>
  </g>
</svg>
