<svg xmlns="http://www.w3.org/2000/svg" width="75.278" height="75.278" viewBox="0 0 75.278 75.278">
  <defs>
    <style>
      .cls-1 {
        fill: #ffe066;
      }

      .cls-2 {
        fill: #264348;
      }
    </style>
  </defs>
  <g id="Group_291" data-name="Group 291" transform="translate(1320.889 -3044.366)">
    <rect id="Rectangle_1188" data-name="Rectangle 1188" class="cls-1" width="75.278" height="75.278" transform="translate(-1320.889 3044.366)"/>
    <path id="Path_1310" data-name="Path 1310" class="cls-2" d="M317.189,427.776l-.007-.006a2.779,2.779,0,0,1-2.353-2.751v-1.737a1.691,1.691,0,0,1,1.691-1.691h10.25a1.7,1.7,0,0,1,1.683,1.7v1.744a2.767,2.767,0,0,1-2.341,2.739l-.007.006m10.248-28a14.636,14.636,0,0,1-4.128,10.209,13.486,13.486,0,0,0-3.612,7.323,2.432,2.432,0,0,1-2.408,2.051h-9.128a2.409,2.409,0,0,1-2.4-2.039,13.639,13.639,0,0,0-3.636-7.347,14.707,14.707,0,1,1,25.308-10.2Zm-14.706-19.534a1.659,1.659,0,0,0,1.658-1.658v-5.811a1.658,1.658,0,0,0-1.687-1.658,1.709,1.709,0,0,0-1.63,1.735v5.734A1.66,1.66,0,0,0,321.647,380.238Zm14.976,6.2a1.653,1.653,0,0,0,1.167-.48l4.064-4.064a1.707,1.707,0,0,0,.076-2.373,1.654,1.654,0,0,0-2.371-.025l-4.116,4.116a1.653,1.653,0,0,0,0,2.346A1.685,1.685,0,0,0,336.623,386.443Zm-31.119-.492a1.654,1.654,0,0,0,2.745-.688,1.712,1.712,0,0,0-.459-1.706l-4.016-4.016a1.707,1.707,0,0,0-2.374-.076,1.655,1.655,0,0,0-.024,2.371Z" transform="translate(-1604.881 2682.562)"/>
    <path id="Path_1311" data-name="Path 1311" class="cls-1" d="M318.382,390.7a9.325,9.325,0,1,0,11.992,5.5A9.325,9.325,0,0,0,318.382,390.7Zm4.864,13.1a4.652,4.652,0,1,1,2.746-5.979A4.653,4.653,0,0,1,323.246,403.8Z" transform="translate(-1604.881 2682.562)"/>
  </g>
</svg>
