<svg xmlns="http://www.w3.org/2000/svg" width="75.278" height="75.278" viewBox="0 0 75.278 75.278">
  <defs>
    <style>
      .cls-1 {
        fill: #264348;
      }

      .cls-2 {
        fill: #ffe066;
      }

      .cls-3 {
        fill: #f25f5c;
      }

      .cls-4 {
        fill: #2de1c2;
      }
    </style>
  </defs>
  <g id="Group_283" data-name="Group 283" transform="translate(1320.889 -2876.806)">
    <rect id="Rectangle_1184" data-name="Rectangle 1184" class="cls-1" width="75.278" height="75.278" transform="translate(-1320.889 2876.806)"/>
    <g id="Group_249" data-name="Group 249" transform="translate(-1604.881 2682.562)">
      <path id="Path_1254" data-name="Path 1254" class="cls-2" d="M318.987,203.132a9.6,9.6,0,1,0,13.134,3.438A9.6,9.6,0,0,0,318.987,203.132Zm7.263,12.415A4.787,4.787,0,1,1,327.969,209,4.787,4.787,0,0,1,326.25,215.547Z"/>
      <path id="Path_1255" data-name="Path 1255" class="cls-3" d="M329.941,232.122a12.211,12.211,0,1,0,16.711,4.376A12.211,12.211,0,0,0,329.941,232.122Zm9.241,15.8a6.091,6.091,0,1,1,2.188-8.332A6.091,6.091,0,0,1,339.182,247.92Z"/>
      <path id="Path_1256" data-name="Path 1256" class="cls-4" d="M300.288,226.368a7.6,7.6,0,1,0,10.4,2.723A7.6,7.6,0,0,0,300.288,226.368Zm5.751,9.832a3.791,3.791,0,1,1,1.362-5.186A3.792,3.792,0,0,1,306.039,236.2Z"/>
    </g>
  </g>
</svg>
