<svg xmlns="http://www.w3.org/2000/svg" width="75.278" height="75.395" viewBox="0 0 75.278 75.395">
  <defs>
    <style>
      .cls-1 {
        fill: #f25f5c;
      }

      .cls-2 {
        fill: #fff;
      }

      .cls-3 {
        fill: #264348;
      }

      .cls-4 {
        fill: #ffe066;
      }
    </style>
  </defs>
  <g id="Group_287" data-name="Group 287" transform="translate(1320.889 -2959.64)">
    <rect id="Rectangle_1186" data-name="Rectangle 1186" class="cls-1" width="75.278" height="75.278" transform="translate(-1320.889 2959.64)"/>
    <g id="Group_253" data-name="Group 253" transform="translate(-1604.881 2682.562)">
      <path id="Path_1265" data-name="Path 1265" class="cls-2" d="M337.834,336.622a17.757,17.757,0,0,1,6.919,13.784,17.027,17.027,0,0,1-.124,2.066H301.5a17.026,17.026,0,0,1-.125-2.066,17.709,17.709,0,0,1,6.733-13.622,51.455,51.455,0,0,1-5.075-11.178c-4.04-12.489-2.921-23.685,2.506-25,5.448-1.33,13.072,13.516,17.111,26.006.249.79.5,1.581.705,2.354.373-1.025.787-2.085,1.263-3.127,5.345-12.112,14-26.311,19.265-24.55,5.262,1.743,5.2,12.993-.165,25.105A52.829,52.829,0,0,1,337.834,336.622Z"/>
      <path id="Path_1266" data-name="Path 1266" class="cls-3" d="M330.85,337.27a5.656,5.656,0,1,0,5.657,5.658A5.656,5.656,0,0,0,330.85,337.27Zm0,8.477a2.821,2.821,0,1,1,2.823-2.819A2.821,2.821,0,0,1,330.85,345.747Z"/>
      <path id="Path_1267" data-name="Path 1267" class="cls-4" d="M302.794,297.379a.462.462,0,0,1-.439.477h-.038a4.044,4.044,0,0,0-4.093,4.432c0,.276-.2.477-.414.414a.455.455,0,0,1-.439-.452,4.028,4.028,0,0,0-4.093-4.431.456.456,0,0,1-.452-.44.461.461,0,0,1,.414-.452h.038a4.044,4.044,0,0,0,4.093-4.431.455.455,0,0,1,.439-.452.466.466,0,0,1,.452.452,4.038,4.038,0,0,0,4.093,4.431A.456.456,0,0,1,302.794,297.379Z"/>
    </g>
  </g>
</svg>
