<svg xmlns="http://www.w3.org/2000/svg" width="75.278" height="75.278" viewBox="0 0 75.278 75.278">
  <defs>
    <style>
      .cls-1 {
        fill: #61e8e1;
      }

      .cls-2 {
        fill: #264348;
      }

      .cls-3 {
        fill: #f25f5c;
      }
    </style>
  </defs>
  <g id="Group_285" data-name="Group 285" transform="translate(1489.994 -2959.766)">
    <rect id="Rectangle_1170" data-name="Rectangle 1170" class="cls-1" width="75.278" height="75.278" transform="translate(-1489.994 2959.766)"/>
    <g id="Group_251" data-name="Group 251" transform="translate(-1604.881 2682.562)">
      <path id="Path_1260" data-name="Path 1260" class="cls-2" d="M174.092,307.821c-3.47,2.4-7.307,2.489-16.57,5.257-5.633,1.661-8.287,4.2-14.543,6.31-1.4.479-11.948,4.008-15-.351-2.8-3.982,1.589-12.094,3.643-14.753A53.277,53.277,0,0,1,145.317,292a1.531,1.531,0,0,0,.636-1.93l-.084-.195c-.539-1.176-.97-2.136-1.313-2.921a1.519,1.519,0,0,1,2.435-1.71h0a15.213,15.213,0,0,1,2.418,3.251,1.506,1.506,0,0,0,1.811.687,23.828,23.828,0,0,1,7.039-1.454c1.995-.085,13.8-.639,18.07,7.463C178.9,300.09,178.706,304.627,174.092,307.821Z"/>
      <path id="Path_1261" data-name="Path 1261" class="cls-3" d="M158.421,328.994a7.934,7.934,0,1,0,7.937,7.936A7.933,7.933,0,0,0,158.421,328.994Zm0,11.892a3.958,3.958,0,1,1,3.96-3.956A3.959,3.959,0,0,1,158.421,340.886Z"/>
      <path id="Path_1262" data-name="Path 1262" class="cls-2" d="M175.648,321.19a.615.615,0,0,1-.585.635h-.05c-.534,0-5.447.184-5.447,5.9,0,.367-.267.635-.551.551a.606.606,0,0,1-.585-.6c0-5.715-4.862-5.9-5.447-5.9a.607.607,0,0,1-.6-.585.613.613,0,0,1,.552-.6h.05c.535,0,5.447-.184,5.447-5.9a.607.607,0,0,1,.585-.6.621.621,0,0,1,.6.6c0,5.714,4.9,5.9,5.447,5.9A.606.606,0,0,1,175.648,321.19Z"/>
    </g>
  </g>
</svg>
