<svg xmlns="http://www.w3.org/2000/svg" width="75.278" height="75.278" viewBox="0 0 75.278 75.278">
  <defs>
    <style>
      .cls-1 {
        fill: #61e8e1;
      }

      .cls-2 {
        fill: #264348;
      }

      .cls-3 {
        fill: #f25f5c;
      }
    </style>
  </defs>
  <g id="Group_286" data-name="Group 286" transform="translate(1405.809 -2959.595)">
    <rect id="Rectangle_1185" data-name="Rectangle 1185" class="cls-1" width="75.278" height="75.278" transform="translate(-1405.809 2959.595)"/>
    <g id="Group_252" data-name="Group 252" transform="translate(-1604.881 2682.562)">
      <path id="Path_1263" data-name="Path 1263" class="cls-2" d="M258.278,307.651c-3.47,2.4-7.307,2.489-16.57,5.257-5.633,1.661-8.287,4.2-14.543,6.31-1.4.478-11.948,4.008-15-.351-2.8-3.982,1.59-12.094,3.643-14.753a53.277,53.277,0,0,1,13.7-12.282,1.531,1.531,0,0,0,.636-1.93q-.042-.1-.084-.2c-.539-1.176-.97-2.136-1.313-2.922a1.518,1.518,0,0,1,2.435-1.709h0a15.235,15.235,0,0,1,2.418,3.25,1.506,1.506,0,0,0,1.811.688,23.8,23.8,0,0,1,7.039-1.454c1.995-.085,13.8-.639,18.07,7.463C263.083,299.92,262.892,304.456,258.278,307.651Z"/>
      <path id="Path_1264" data-name="Path 1264" class="cls-3" d="M242.792,325.036a7.934,7.934,0,1,0,7.937,7.937A7.934,7.934,0,0,0,242.792,325.036Zm0,11.892a3.958,3.958,0,1,1,3.96-3.955A3.958,3.958,0,0,1,242.792,336.928Z"/>
    </g>
  </g>
</svg>
