<svg xmlns="http://www.w3.org/2000/svg" width="75.278" height="75.278" viewBox="0 0 75.278 75.278">
  <defs>
    <style>
      .cls-1 {
        fill: #61e8e1;
      }

      .cls-2 {
        fill: none;
        stroke: #264348;
        stroke-miterlimit: 10;
        stroke-width: 5px;
      }

      .cls-3 {
        fill: #f25f5c;
      }
    </style>
  </defs>
  <g id="Group_277" data-name="Group 277" transform="translate(1490.406 -2792.46)">
    <rect id="Rectangle_1178" data-name="Rectangle 1178" class="cls-1" width="75.278" height="75.278" transform="translate(-1490.406 2792.46)"/>
    <g id="Group_242" data-name="Group 242" transform="translate(-1604.881 2682.562)">
      <g id="Group_189" data-name="Group 189">
        <path id="Path_1235" data-name="Path 1235" class="cls-2" d="M173.862,135.177c0,4.82-2.951,13.53-7.34,21.68a53.836,53.836,0,0,1-6.811,10.11c-2.759,3.08-5.339,4.65-7.669,4.65s-4.92-1.57-7.68-4.65c-.09-.1-.19-.21-.28-.32a41.41,41.41,0,0,1-3.111-4.1c-1.149-1.71-2.3-3.62-3.419-5.69l-.091-.18s0,.01-.009,0c-.82-1.54-1.6-3.1-2.3-4.65-3.029-6.59-4.93-12.98-4.93-16.85a13.293,13.293,0,0,1,6.661-11.71c3.82-2.39,9.07-3.65,15.16-3.65s11.33,1.26,15.16,3.65A13.312,13.312,0,0,1,173.862,135.177Z"/>
      </g>
    </g>
    <path id="Path_1301" data-name="Path 1301" class="cls-3" d="M136.522,151.927a8.953,8.953,0,0,0-1.371.1,9.305,9.305,0,1,0,8.931,14.62,9.191,9.191,0,0,0,1.74-5.41A9.3,9.3,0,0,0,136.522,151.927Zm0,13.95a4.645,4.645,0,0,1,0-9.29,4.746,4.746,0,0,1,.93.09c.009.01.009,0,.009,0a4.649,4.649,0,0,1-.939,9.2Z" transform="translate(-1604.881 2682.562)"/>
    <circle id="Ellipse_88" data-name="Ellipse 88" class="cls-1" cx="4.642" cy="4.642" r="4.642" transform="translate(-1473.006 2839.153)"/>
  </g>
</svg>
