<svg xmlns="http://www.w3.org/2000/svg" width="289.209" height="289.209" viewBox="0 0 289.209 289.209">
  <defs>
    <style>
      .cls-1 {
        fill: #f25f5c;
      }
    </style>
  </defs>
  <path id="ic_extension_24px" class="cls-1" d="M256.78,138.719H236.122V83.631a27.625,27.625,0,0,0-27.544-27.544H153.491V35.43a34.43,34.43,0,0,0-68.859,0V56.087H29.544A27.507,27.507,0,0,0,2.138,83.631v52.333h20.52a37.184,37.184,0,0,1,0,74.368H2v52.333a27.625,27.625,0,0,0,27.544,27.544H81.877V269.551a37.184,37.184,0,0,1,74.368,0v20.658h52.333a27.625,27.625,0,0,0,27.544-27.544V207.578H256.78a34.43,34.43,0,0,0,0-68.859Z" transform="translate(-2 -1)"/>
</svg>
