<svg xmlns="http://www.w3.org/2000/svg" width="245.326" height="196.261" viewBox="0 0 245.326 196.261">
  <defs>
    <style>
      .cls-1 {
        fill: #2de1c2;
      }
    </style>
  </defs>
  <path id="ic_local_atm_24px" class="cls-1" d="M112.4,163.462h24.533V151.2H149.2a12.3,12.3,0,0,0,12.266-12.266v-36.8A12.3,12.3,0,0,0,149.2,89.864H112.4V77.6h49.065V53.065H136.929V40.8H112.4V53.065H100.13A12.3,12.3,0,0,0,87.864,65.331v36.8A12.3,12.3,0,0,0,100.13,114.4h36.8v12.266H87.864V151.2H112.4ZM222.793,4H26.533A24.344,24.344,0,0,0,2.123,28.533L2,175.728A24.448,24.448,0,0,0,26.533,200.26h196.26a24.448,24.448,0,0,0,24.533-24.533V28.533A24.448,24.448,0,0,0,222.793,4Zm0,171.728H26.533V28.533h196.26Z" transform="translate(-2 -4)"/>
</svg>
