<svg xmlns="http://www.w3.org/2000/svg" width="280.372" height="196.261" viewBox="0 0 280.372 196.261">
  <defs>
    <style>
      .cls-1 {
        fill: #264348;
      }
    </style>
  </defs>
  <path id="ic_supervisor_account_24px" class="cls-1" d="M205.27,103.13a35.047,35.047,0,1,0-35.047-35.047A34.94,34.94,0,0,0,205.27,103.13ZM100.13,89.112A42.056,42.056,0,1,0,58.074,47.056,41.88,41.88,0,0,0,100.13,89.112Zm105.14,42.056c-25.654,0-77.1,12.9-77.1,38.551V201.26h154.2V169.719C282.372,144.065,230.924,131.167,205.27,131.167ZM100.13,117.149c-32.663,0-98.13,16.4-98.13,49.065V201.26h98.13V169.719c0-11.916,4.626-32.8,33.224-48.645C121.158,118.551,109.383,117.149,100.13,117.149Z" transform="translate(-2 -5)"/>
</svg>
