<svg xmlns="http://www.w3.org/2000/svg" width="170.035" height="409.086" viewBox="0 0 170.035 409.086">
  <defs>
    <style>
      .cls-1 {
        fill: #f6ba99;
      }

      .cls-2, .cls-3 {
        fill: #00143a;
      }

      .cls-2 {
        opacity: 0.27;
      }

      .cls-4 {
        opacity: 0.33;
      }

      .cls-5 {
        fill: #f2957e;
      }

      .cls-6 {
        fill: #f3f0eb;
      }

      .cls-7 {
        fill: #54c5cb;
      }

      .cls-8 {
        fill: #f25f5c;
      }

      .cls-9 {
        fill: #fce8cf;
      }

      .cls-10 {
        fill: #fcd588;
      }

      .cls-11 {
        fill: #ffe066;
      }

      .cls-12 {
        fill: #e8ba69;
      }

      .cls-13 {
        fill: none;
        stroke: #f9eed9;
        stroke-miterlimit: 10;
        stroke-width: 0.15px;
      }
    </style>
  </defs>
  <g id="Group_180" data-name="Group 180" transform="translate(-571.094 -21.345)">
    <path id="Path_1183" data-name="Path 1183" class="cls-1" d="M659.791,167.084c2.192,8.832,9.463,21.778,9.463,21.778l-68.075,3.6s-3.846-24.362,5.989-37.942c4.515-6.237,3.5-14.989,1.649-22.461l-6.344-25.579,8.449-24.029,33.964,2.3s10.256-1.675,18.835,10.414L658.8,127.756l-.336,2.077Z" transform="translate(25.765 53.651)"/>
    <path id="Path_1184" data-name="Path 1184" class="cls-2" d="M605.553,113.31l.332,5.526,48.458-3.72-.149-4.173Z" transform="translate(30.256 78.669)"/>
    <path id="Path_1185" data-name="Path 1185" class="cls-3" d="M645.539,62.553c-.588,7.2,5.784,11.957,12.834,13.511,3.707.817,7.946.331,10.915,2.7,5.089,4.058,2.308,12.7,5.792,18.2,2.139,3.382,6.3,4.99,8.7,8.194,3.983,5.33,1.519,13.524-3.715,17.631s-12.288,4.994-18.94,4.937c-14.632-.122-29.692-4.4-40.445-14.322-5.052-4.659-21.471-22.427-14.624-48.56" transform="translate(29.251 36.182)"/>
    <path id="Path_1186" data-name="Path 1186" class="cls-1" d="M631.306,107.9c-.342-2,.47-10.391.47-10.391s7.662-.811,8.128-8.41-1.942-25.455-1.942-25.455l-12.016-6.489L610.593,68.787l2.327,37.992Z" transform="translate(34.681 31.445)"/>
    <g id="Group_157" data-name="Group 157" transform="translate(670.155 105.959)">
      <path id="Path_1187" data-name="Path 1187" class="cls-3" d="M626.3,68.047a.972.972,0,1,1-.971-.973A.971.971,0,0,1,626.3,68.047Z" transform="translate(-623.393 -65.807)"/>
      <g id="Group_156" data-name="Group 156">
        <path id="Path_1188" data-name="Path 1188" class="cls-3" d="M627.687,67.578c-.126.126-.845-.485-1.891-.541-1.046-.071-1.833.447-1.942.308-.055-.064.075-.295.421-.531a2.581,2.581,0,0,1,3.059.188C627.647,67.277,627.747,67.523,627.687,67.578Z" transform="translate(-623.842 -66.399)"/>
      </g>
    </g>
    <g id="Group_159" data-name="Group 159" transform="translate(658.547 105.959)">
      <path id="Path_1189" data-name="Path 1189" class="cls-3" d="M620.295,68.047a.972.972,0,1,1-.971-.973A.971.971,0,0,1,620.295,68.047Z" transform="translate(-617.055 -65.807)"/>
      <g id="Group_158" data-name="Group 158">
        <path id="Path_1190" data-name="Path 1190" class="cls-3" d="M621.506,67.578c-.126.126-.843-.485-1.889-.541-1.048-.071-1.835.447-1.944.308-.054-.064.077-.295.421-.531a2.581,2.581,0,0,1,3.059.188C621.466,67.277,621.568,67.523,621.506,67.578Z" transform="translate(-617.661 -66.399)"/>
      </g>
    </g>
    <g id="Group_160" data-name="Group 160" transform="translate(665.987 106.848)">
      <path id="Path_1191" data-name="Path 1191" class="cls-3" d="M621.8,76.006a6.657,6.657,0,0,1,1.713-.223c.269-.015.524-.056.575-.244a1.483,1.483,0,0,0-.15-.838c-.227-.689-.468-1.41-.717-2.169a38.236,38.236,0,0,1-1.589-5.658,38.548,38.548,0,0,1,2.019,5.521c.239.761.468,1.486.685,2.18a1.7,1.7,0,0,1,.1,1.1.659.659,0,0,1-.455.383,1.778,1.778,0,0,1-.456.041A6.567,6.567,0,0,1,621.8,76.006Z" transform="translate(-621.622 -66.873)"/>
    </g>
    <g id="Group_161" data-name="Group 161" class="cls-4" transform="translate(655.157 114.892)">
      <path id="Path_1192" data-name="Path 1192" class="cls-5" d="M621.84,72.763c-.026.866-1.358,1.487-2.975,1.525s-2.962-.53-3.009-1.4,1.283-1.7,2.975-1.735S621.87,71.9,621.84,72.763Z" transform="translate(-615.855 -71.156)"/>
    </g>
    <path id="Path_1193" data-name="Path 1193" class="cls-6" d="M619.959,72.323c-1.057-.7,2.928,1.743,5.065,1.743a2.9,2.9,0,0,1-3.473.984C619.319,74.107,619.959,72.323,619.959,72.323Z" transform="translate(42.751 44.649)"/>
    <path id="Path_1194" data-name="Path 1194" class="cls-5" d="M626.579,80.235a18.975,18.975,0,0,1-10.068-3.4s2.282,5.58,9.9,5.266Z" transform="translate(39.877 48.721)"/>
    <path id="Path_1195" data-name="Path 1195" class="cls-7" d="M637.946,226.591s8.145,10.6,4.34,9.06-24.57-23.4-24.57-23.4l2.175-2.622Z" transform="translate(40.935 165.32)"/>
    <path id="Path_1196" data-name="Path 1196" class="cls-7" d="M624.169,239.59s11.681,6.5,7.58,6.592-31.838-11.724-31.838-11.724l.954-3.27Z" transform="translate(25.301 184.248)"/>
    <path id="Path_1197" data-name="Path 1197" class="cls-3" d="M604.692,66.935s-1.465,26.659,13.332,29.819l-1.046-30.283Z" transform="translate(29.465 39.622)"/>
    <g id="Group_162" data-name="Group 162" transform="translate(571.094 21.345)">
      <path id="Path_1198" data-name="Path 1198" class="cls-1" d="M597.086,49.347l-13.043,8.864s-7.694-16.121-10.688-21.825c-2.92-5.568-2.426-5.837-1.72-6.066,1.9-.618,5.514,9.6,6.01,6.952s-5.873-11.982-3.863-12.545c2.618-.734,6.207,10.032,6.579,10.921.359.862,1.668.383,1.288-.4-.543-1.129-5.955-13.114-3.388-13.86,1.422-.411,1.927,2.21,1.927,2.21s4.239,11.586,5.439,11.193c1.217-.4-1.042-7.285-1.968-9.554-.916-2.24-.222-3.587,1.108-3.168.907.287,3.906,7.167,4.77,9.43s3.12,8.519,4.515,4.532,3.97-6.528,5.144-6.731a1.322,1.322,0,0,1,.973,2.3,15.437,15.437,0,0,0-2.145,3.681,10.088,10.088,0,0,0-.873,3.3,35,35,0,0,0-.038,6.894l-.107,4.1" transform="translate(-571.094 -21.345)"/>
      <path id="Path_1199" data-name="Path 1199" class="cls-1" d="M576.877,40.972l14.053-8.059s23.8,76.259,46.821,96.224L624.84,155.813S590.168,88.067,576.877,40.972Z" transform="translate(-566.016 -11.187)"/>
    </g>
    <g id="Group_163" data-name="Group 163" transform="translate(669.311 22.37)">
      <path id="Path_1200" data-name="Path 1200" class="cls-1" d="M649.427,49.893l13.045,8.862s7.692-16.121,10.686-21.823c2.924-5.568,2.426-5.839,1.72-6.068-1.9-.616-5.51,9.6-6.008,6.954s5.873-11.982,3.863-12.545c-2.62-.734-6.207,10.032-6.577,10.921-.362.862-1.67.383-1.292-.4.543-1.127,5.955-13.112,3.39-13.858-1.422-.413-1.929,2.21-1.929,2.21s-4.235,11.586-5.435,11.193c-1.217-.4,1.042-7.285,1.966-9.554.915-2.24.222-3.587-1.108-3.168-.905.287-3.906,7.167-4.768,9.43s-3.121,8.517-4.515,4.532-3.972-6.528-5.148-6.731a1.321,1.321,0,0,0-.971,2.3,15.312,15.312,0,0,1,2.143,3.681,10,10,0,0,1,.873,3.3,35.044,35.044,0,0,1,.041,6.894l.105,4.1" transform="translate(-603.602 -21.89)"/>
      <path id="Path_1201" data-name="Path 1201" class="cls-1" d="M684.266,41.653l-14.052-8.059s-1.131,3.617-3.133,9.48c-7.2,21.064-25.684,71.126-43.69,86.746L636.305,156.5S670.977,88.748,684.266,41.653Z" transform="translate(-623.392 -11.615)"/>
    </g>
    <path id="Path_1202" data-name="Path 1202" class="cls-1" d="M646.54,131.644s44.515,78.274,44.975,87.734-52.577,77.393-52.577,77.393l-18.617-18.647s38.3-48.928,37.885-57.593S617.329,157.1,617.329,157.1l7.251-18.35Z" transform="translate(40.596 96.846)"/>
    <path id="Path_1203" data-name="Path 1203" class="cls-3" d="M615.549,78.14l20.887-16.281,9.58,14.508s.128-20.529-13.627-21.244c-26.012-1.352-27.106,16.309-27.106,16.309Z" transform="translate(30.02 29.593)"/>
    <path id="Path_1204" data-name="Path 1204" class="cls-1" d="M601.179,145.941s24.262,88.014,21.3,97.843S600.439,316.2,600.439,316.2l25.083,9.691s27.459-80.753,30.266-92.958-16.378-97.5-16.378-97.5Z" transform="translate(25.766 100.17)"/>
    <path id="Path_1205" data-name="Path 1205" class="cls-8" d="M625.966,147.589l45.577-2.553-.248-36.952,9.145-20.171-17.917-10.29L653.75,92.616l-7.154.709L628.18,92.15,610.856,71.715,593.084,92.15l16.481,27.532-2.669,28.21Z" transform="translate(19.308 44.227)"/>
    <path id="Path_1206" data-name="Path 1206" class="cls-9" d="M593.084,92.15l17.772-20.434,3.963,4.005L596.144,97.262Z" transform="translate(19.308 44.227)"/>
    <g id="Group_165" data-name="Group 165" transform="translate(617.241 123.078)">
      <line id="Line_7" data-name="Line 7" class="cls-9" y1="21.402" x2="18.971" transform="translate(0.003 0.001)"/>
      <g id="Group_164" data-name="Group 164" transform="translate(0 0)">
        <path id="Path_1207" data-name="Path 1207" class="cls-10" d="M614.64,75.517c.107.094-4.053,4.964-9.291,10.874s-9.573,10.622-9.681,10.528,4.053-4.964,9.292-10.874S614.531,75.421,614.64,75.517Z" transform="translate(-595.666 -75.515)"/>
      </g>
    </g>
    <g id="Group_166" data-name="Group 166" transform="translate(679.638 121.825)">
      <path id="Path_1208" data-name="Path 1208" class="cls-9" d="M628.9,78.567l2.168-3.7,17.917,10.29-1.92,4.236Z" transform="translate(-628.879 -74.836)"/>
      <path id="Path_1209" data-name="Path 1209" class="cls-10" d="M647.091,89.425l-.019-.009L628.891,78.585l.009-.015,2.177-3.722.017.009,17.931,10.3-.008.015ZM628.942,78.572l18.13,10.8,1.9-4.2L631.092,74.9Z" transform="translate(-628.891 -74.848)"/>
    </g>
    <g id="Group_168" data-name="Group 168" transform="translate(678.274 128.145)">
      <path id="Path_1210" data-name="Path 1210" class="cls-9" d="M628.165,78.215a91.691,91.691,0,0,0,18.793,10.7" transform="translate(-628.164 -78.211)"/>
      <g id="Group_167" data-name="Group 167" transform="translate(0 0)">
        <path id="Path_1211" data-name="Path 1211" class="cls-10" d="M646.959,88.912a16.314,16.314,0,0,1-2.979-1.119,72.7,72.7,0,0,1-6.862-3.446,72.208,72.208,0,0,1-6.47-4.141,16.068,16.068,0,0,1-2.483-1.989,23.478,23.478,0,0,1,2.691,1.686c1.639,1.07,3.925,2.513,6.519,3.991s5,2.7,6.759,3.564A23.184,23.184,0,0,1,646.959,88.912Z" transform="translate(-628.164 -78.213)"/>
      </g>
    </g>
    <g id="Group_170" data-name="Group 170" transform="translate(627.07 176.335)">
      <path id="Path_1212" data-name="Path 1212" class="cls-9" d="M600.9,106.683c21.468,0,40.7-1.938,64.4-2.8" transform="translate(-600.9 -103.861)"/>
      <g id="Group_169" data-name="Group 169">
        <path id="Path_1213" data-name="Path 1213" class="cls-10" d="M665.3,103.9a3.245,3.245,0,0,1-.652.077l-1.876.124-6.9.387c-6.158.364-14.036.828-22.75,1.345-8.889.516-16.947.843-22.784.926-2.918.047-5.277.053-6.909.026-.686-.013-1.3-.026-1.878-.039a2.926,2.926,0,0,1-.655-.049,3.153,3.153,0,0,1,.655-.056l1.876-.058q2.885-.079,6.9-.192c5.831-.177,13.877-.562,22.764-1.078s16.932-.963,22.764-1.193q4.023-.13,6.905-.222c.685-.009,1.3-.019,1.88-.024A3.034,3.034,0,0,1,665.3,103.9Z" transform="translate(-600.9 -103.873)"/>
      </g>
    </g>
    <g id="Group_172" data-name="Group 172" transform="translate(627.585 181.023)">
      <path id="Path_1214" data-name="Path 1214" class="cls-9" d="M601.174,109.181c21.468,0,40.7-1.94,64.4-2.8" transform="translate(-601.174 -106.357)"/>
      <g id="Group_171" data-name="Group 171">
        <path id="Path_1215" data-name="Path 1215" class="cls-10" d="M665.577,106.4a3.282,3.282,0,0,1-.652.077l-1.874.124-6.9.387c-6.16.364-14.038.828-22.752,1.345-8.889.516-16.945.843-22.781.926-2.918.045-5.281.053-6.911.026l-1.88-.038a3.246,3.246,0,0,1-.655-.049,3.046,3.046,0,0,1,.655-.058l1.878-.058,6.9-.192c5.828-.177,13.873-.562,22.762-1.078s16.932-.963,22.764-1.193l6.907-.222,1.878-.024A3.049,3.049,0,0,1,665.577,106.4Z" transform="translate(-601.174 -106.369)"/>
      </g>
    </g>
    <path id="Path_1216" data-name="Path 1216" class="cls-2" d="M606.593,163.288l1.307,5.3s35.617,5.784,38.524,4.011l-.969-5.394C631.813,163.579,618.776,161.988,606.593,163.288Z" transform="translate(31.169 124.236)"/>
    <path id="Path_1217" data-name="Path 1217" class="cls-2" d="M631.338,175.172l3.253,4.949s24.559-9.723,25.629-20.6l-3.168-5.9Z" transform="translate(52.896 116.136)"/>
    <path id="Path_1218" data-name="Path 1218" class="cls-11" d="M609.469,120.824l52.374,5.523L689.652,182.4s-8.964,20.794-28.882,21.558-29.286-7.9-45.906-1.489c-10.791,4.164-13.824-.377-14.038-2.295C598.83,182.192,591.96,145.507,609.469,120.824Z" transform="translate(23.464 87.345)"/>
    <path id="Path_1219" data-name="Path 1219" class="cls-12" d="M603.354,123.741l54.435,5.291-1.005-7.2-50.831-2.215Z" transform="translate(28.325 86.29)"/>
    <g id="Group_173" data-name="Group 173" transform="translate(620.604 259.811)">
      <path id="Path_1220" data-name="Path 1220" class="cls-13" d="M597.457,148.322" transform="translate(-597.457 -148.322)"/>
    </g>
    <path id="Path_1221" data-name="Path 1221" class="cls-3" d="M663.3,47.988,647.186,36.6l-1.254,3.652,15.89,12.273Z" transform="translate(65.71 13.395)"/>
    <path id="Path_1222" data-name="Path 1222" class="cls-2" d="M621.246,230.841l9.6-29.282,4.829-5.295L625.9,235.533Z" transform="translate(44.034 153.584)"/>
    <g id="Group_174" data-name="Group 174" transform="translate(629.1 208.364)">
      <path id="Path_1223" data-name="Path 1223" class="cls-12" d="M609.64,120.928c.237.111-2.038,4.105-3.936,11.169a81.692,81.692,0,0,0-2.058,28.292,180.6,180.6,0,0,0,5.315,28.1c.864,3.36,1.587,6.184,2.163,8.43a15.2,15.2,0,0,1,.648,3.136,14.952,14.952,0,0,1-1.134-3c-.646-1.955-1.54-4.793-2.567-8.329a152.877,152.877,0,0,1-5.722-28.221c-1.046-11.257.257-21.6,2.471-28.661a50.972,50.972,0,0,1,3.195-8.151A13.2,13.2,0,0,1,609.64,120.928Z" transform="translate(-601.98 -120.927)"/>
    </g>
    <g id="Group_175" data-name="Group 175" transform="translate(635.862 229.43)">
      <path id="Path_1224" data-name="Path 1224" class="cls-12" d="M618.56,132.147c.154.038.088,1.157-.524,2.849a17.015,17.015,0,0,1-9.612,9.736c-1.685.635-2.8.714-2.839.56-.132-.374,4.107-1.585,7.741-5.335C617.025,136.277,618.182,132.023,618.56,132.147Z" transform="translate(-605.581 -132.145)"/>
    </g>
    <g id="Group_176" data-name="Group 176" transform="translate(670.289 212.609)">
      <path id="Path_1225" data-name="Path 1225" class="cls-12" d="M633.925,148.062c.107.111-1.964,1.884-6.047,2.669l-.437.084-.135-.464a88.981,88.981,0,0,1-2.265-10.2,86.923,86.923,0,0,1-1.117-11.978c-.051-3.08.111-4.981.283-4.982.385-.006.609,7.568,2.12,16.752.625,3.871,1.358,7.405,1.972,10.158l-.573-.379C631.594,149.217,633.814,147.83,633.925,148.062Z" transform="translate(-623.913 -123.188)"/>
    </g>
    <g id="Group_177" data-name="Group 177" transform="translate(673.365 219.658)">
      <path id="Path_1226" data-name="Path 1226" class="cls-12" d="M627.277,127.277c-.1-.133.616-.637,1.658-.077a2.263,2.263,0,1,1-3.377,1.767c.133-1.176.956-1.476,1.008-1.32.124.145-.222.59-.088,1.309a1.176,1.176,0,1,0,1.923-1C627.886,127.431,627.326,127.459,627.277,127.277Z" transform="translate(-625.551 -126.941)"/>
    </g>
    <g id="Group_178" data-name="Group 178" transform="translate(674.326 227.811)">
      <path id="Path_1227" data-name="Path 1227" class="cls-12" d="M628.028,131.411c.028.188-.494.385-.744,1.067a1.132,1.132,0,1,0,2.051.034c-.225-.689-.742-.905-.706-1.091-.034-.163.836-.31,1.519.657a2.23,2.23,0,1,1-3.658-.06C627.2,131.073,628.068,131.25,628.028,131.411Z" transform="translate(-626.062 -131.283)"/>
    </g>
    <g id="Group_179" data-name="Group 179" transform="translate(686.478 227.874)">
      <path id="Path_1228" data-name="Path 1228" class="cls-12" d="M641.039,136.646c.1.338-2.635.883-5.354-.853-2.734-1.709-3.418-4.415-3.067-4.47.344-.15,1.424,1.931,3.766,3.367C638.684,136.188,641.025,136.27,641.039,136.646Z" transform="translate(-632.533 -131.316)"/>
    </g>
  </g>
</svg>
