<svg xmlns="http://www.w3.org/2000/svg" xmlns:xlink="http://www.w3.org/1999/xlink" width="1097" height="1377" viewBox="0 0 1097 1377">
  <defs>
    <style>
      .cls-1 {
        fill: #fff;
        stroke: #707070;
      }

      .cls-2 {
        fill: #2de1c2;
      }

      .cls-3 {
        fill: #ffe066;
        stroke: rgba(0,0,0,0);
      }

      .cls-4 {
        clip-path: url(#clip-path);
      }

      .cls-5 {
        fill: #61e8e1;
      }

      .cls-6 {
        filter: url(#Path_111);
      }

      .cls-7 {
        filter: url(#Intersection_1);
      }

      .cls-8 {
        filter: url(#Rectangle_11);
      }
    </style>
    <filter id="Rectangle_13" x="278" y="558.325" width="686.175" height="686.175" filterUnits="userSpaceOnUse">
      <feOffset input="SourceAlpha"/>
      <feGaussianBlur stdDeviation="5" result="blur"/>
      <feFlood flood-opacity="0.161"/>
      <feComposite operator="in" in2="blur"/>
      <feComposite in="SourceGraphic"/>
    </filter>
    <filter id="Rectangle_11" x="0" y="0" width="1097" height="1377" filterUnits="userSpaceOnUse">
      <feOffset input="SourceAlpha"/>
      <feGaussianBlur stdDeviation="49.5" result="blur-2"/>
      <feFlood flood-opacity="0.161"/>
      <feComposite operator="in" in2="blur-2"/>
      <feComposite in="SourceGraphic"/>
    </filter>
    <filter id="Intersection_1" x="586.109" y="856.863" width="378.064" height="387.637" filterUnits="userSpaceOnUse">
      <feOffset input="SourceAlpha"/>
      <feGaussianBlur stdDeviation="5" result="blur-3"/>
      <feFlood flood-opacity="0.161"/>
      <feComposite operator="in" in2="blur-3"/>
      <feComposite in="SourceGraphic"/>
    </filter>
    <clipPath id="clip-path">
      <rect id="Rectangle_1205" data-name="Rectangle 1205" class="cls-1" width="162" height="216" transform="translate(11254 -11185)"/>
    </clipPath>
    <filter id="Path_111" x="63.7" y="840.815" width="168.8" height="168.796" filterUnits="userSpaceOnUse">
      <feOffset dy="5" input="SourceAlpha"/>
      <feGaussianBlur stdDeviation="5" result="blur-4"/>
      <feFlood flood-opacity="0.161"/>
      <feComposite operator="in" in2="blur-4"/>
      <feComposite in="SourceGraphic"/>
    </filter>
  </defs>
  <g id="Group_321" data-name="Group 321" transform="translate(-10072.5 12019.5)">
    <g id="Group_320" data-name="Group 320" transform="translate(10221 -11871)">
      <g class="cls-8" transform="matrix(1, 0, 0, 1, -148.5, -148.5)">
        <rect id="Rectangle_11-2" data-name="Rectangle 11" class="cls-2" width="800" height="1080" transform="translate(148.5 148.5)"/>
      </g>
      <g class="cls-7" transform="matrix(1, 0, 0, 1, -148.5, -148.5)">
        <path id="Intersection_1-2" data-name="Intersection 1" class="cls-3" d="M5065.61,1001.675c0-.287,0-.56,0-.847,0-193.755,154.649-351.206,347.065-355.777V821.762c-95.417,4.383-171.591,83.238-171.725,179.912Z" transform="translate(-4464 227.33)"/>
      </g>
    </g>
    <g id="Mask_Group_7" data-name="Mask Group 7" class="cls-4" transform="translate(-1033)">
      <g class="cls-6" transform="matrix(1, 0, 0, 1, 11105.5, -12019.5)">
        <path id="Path_111-2" data-name="Path 111" class="cls-5" d="M394.1,360.874A69.4,69.4,0,1,0,463.517,430.3,69.393,69.393,0,0,0,394.1,360.874Zm0,104.015A34.618,34.618,0,1,1,428.737,430.3,34.619,34.619,0,0,1,394.1,464.889Z" transform="translate(-246.02 489.94)"/>
      </g>
    </g>
  </g>
</svg>
