<svg xmlns="http://www.w3.org/2000/svg" xmlns:xlink="http://www.w3.org/1999/xlink" width="181.92" height="409.086" viewBox="0 0 181.92 409.086">
  <defs>
    <style>
      .cls-1 {
        fill: none;
      }

      .cls-2 {
        fill: #f6ba99;
      }

      .cls-3 {
        clip-path: url(#clip-path);
      }

      .cls-4 {
        fill: #2de1c2;
      }

      .cls-5 {
        fill: #ffe066;
      }

      .cls-6 {
        fill: #f25f5c;
      }

      .cls-7 {
        fill: #062a63;
      }

      .cls-8 {
        fill: #00143a;
      }

      .cls-9 {
        opacity: 0.46;
      }

      .cls-10 {
        fill: #f2957e;
      }

      .cls-11 {
        fill: #3d3530;
      }

      .cls-12 {
        fill: #f3f0eb;
      }

      .cls-13 {
        fill: #cd945f;
      }

      .cls-14 {
        opacity: 0.21;
      }
    </style>
    <clipPath id="clip-path">
      <path id="Path_1145" data-name="Path 1145" class="cls-1" d="M466.507,132.531,455.918,122.4a162.792,162.792,0,0,1-27.53,17.4c-8.075,4.008-16.6-28.163-21.6-46.857a29.972,29.972,0,0,0-3.254-11.356l-.025-.07-.008.013a28.227,28.227,0,0,0-13.62-12.574s-11.118-.8-26.782-2.3-24.649,11.061-24.649,11.061-28.924,61.307-23.737,149.924h16.458s2.762-38.663,8.028-73l.117,11.949h0l-.553,12.669,68.225,6.391s.65-1.246,3.933-7.219c2.622-4.766-2.747-6.808-5.024-7.439-.068-3.69-.144-8.536-.2-14.071,3.648,5.878,7.488,10.218,11.277,11.4,13.989,4.351,42.883-27.4,49.617-33.4C469.358,132.465,467.18,133.175,466.507,132.531Z" transform="translate(-314.088 -66.539)"/>
    </clipPath>
  </defs>
  <g id="Group_155" data-name="Group 155" transform="translate(-314.057 -35.836)">
    <g id="Group_118" data-name="Group 118" transform="translate(314.056 260.091)">
      <path id="Path_1131" data-name="Path 1131" class="cls-2" d="M328.428,141.707l2.675,3.921a41.064,41.064,0,0,0,4.37,6.679,11.57,11.57,0,0,0,2.9,2.652,17.387,17.387,0,0,0,4.344,2.2,1.555,1.555,0,0,1,.525,2.868c-1.241.559-5.276-.25-9.1-3.228s-2.038,4.558-1.434,7.318,2.084,11.385,1.4,12.249c-1,1.265-2.5.4-3.042-2.368-.547-2.8-2.735-10.96-4.139-10.563-1.383.394,1.881,14.4,1.881,14.4s1.169,2.879-.438,3.393c-2.9.93-5.3-14.219-5.5-15.668-.134-1.006-1.676-.629-1.474.443.208,1.1,3.571,13.891.627,14.866-2.258.748-2.089-12.442-4.222-14.7s.862,10.017-1.324,10.64c-.816.233-1.453.29-2.184-7.011-.746-7.479.445-28.077.445-28.077l13.9.163" transform="translate(-314.056 -141.707)"/>
    </g>
    <g id="Group_132" data-name="Group 132" transform="translate(314.124 100.871)">
      <g id="Group_131" data-name="Group 131" class="cls-3">
        <path id="Path_1132" data-name="Path 1132" class="cls-4" d="M466.507,132.531,455.918,122.4a162.792,162.792,0,0,1-27.53,17.4c-8.075,4.008-16.6-28.163-21.6-46.857a29.972,29.972,0,0,0-3.254-11.356l-.025-.07-.008.013a28.227,28.227,0,0,0-13.62-12.574s-11.118-.8-26.782-2.3-24.649,11.061-24.649,11.061-28.924,61.307-23.737,149.924h16.458s2.762-38.663,8.028-73l.117,11.949h0l-.553,12.669,68.225,6.391s.65-1.246,3.933-7.219c2.622-4.766-2.747-6.808-5.024-7.439-.068-3.69-.144-8.536-.2-14.071,3.648,5.878,7.488,10.218,11.277,11.4,13.989,4.351,42.883-27.4,49.617-33.4C469.358,132.465,467.18,133.175,466.507,132.531Z" transform="translate(-314.088 -66.539)"/>
        <g id="Group_119" data-name="Group 119" transform="translate(26.905 7.909)">
          <path id="Path_1133" data-name="Path 1133" class="cls-5" d="M394.856,71.722c0,.8-15.238,1.451-34.031,1.451s-34.035-.65-34.035-1.451,15.234-1.449,34.035-1.449S394.856,70.921,394.856,71.722Z" transform="translate(-326.79 -70.273)"/>
        </g>
        <g id="Group_120" data-name="Group 120" transform="translate(15.289 19.288)">
          <path id="Path_1134" data-name="Path 1134" class="cls-5" d="M405.112,77.1c0,.8-18.763,1.449-41.9,1.449s-41.9-.65-41.9-1.449,18.759-1.451,41.9-1.451S405.112,76.3,405.112,77.1Z" transform="translate(-321.306 -75.645)"/>
        </g>
        <g id="Group_121" data-name="Group 121" transform="translate(9.053 32.133)">
          <path id="Path_1135" data-name="Path 1135" class="cls-5" d="M407.7,83.158c0,.8-20,1.451-44.666,1.451s-44.671-.65-44.671-1.451,20-1.449,44.671-1.449S407.7,82.357,407.7,83.158Z" transform="translate(-318.362 -81.709)"/>
        </g>
        <g id="Group_122" data-name="Group 122" transform="translate(2.25 44.592)">
          <path id="Path_1136" data-name="Path 1136" class="cls-5" d="M437.243,89.429c0,.8-27.342,1.294-61.051,1.1s-61.046-1-61.042-1.8,27.337-1.292,61.059-1.1S437.247,88.631,437.243,89.429Z" transform="translate(-315.15 -87.591)"/>
        </g>
        <g id="Group_123" data-name="Group 123" transform="translate(-7.642 55.733)">
          <path id="Path_1137" data-name="Path 1137" class="cls-5" d="M433.949,93.428c.009.4-6.833.934-17.905,1.472s-26.367,1.085-43.266,1.5c-27.051.676-50.011.832-57.856.451l-4.442-.214,4.33-.691c2.262-.36,3.366-.449,3.4-.292s-1,.546-3.2,1.186l-.112-.9c7.818-.771,30.754-1.758,57.805-2.434,16.9-.422,32.207-.642,43.29-.655S433.939,93.029,433.949,93.428Z" transform="translate(-310.48 -92.851)"/>
        </g>
        <g id="Group_124" data-name="Group 124" transform="translate(-14.346 68.281)">
          <path id="Path_1138" data-name="Path 1138" class="cls-5" d="M484.731,99.049c.011.2-2.463.494-6.946.856s-10.968.765-18.99,1.167c-16.043.82-38.219,1.608-62.72,2.141s-46.7.691-62.764.563c-8.032-.057-14.531-.186-19.023-.35s-6.973-.358-6.973-.559,2.485-.392,6.971-.57c4.671-.14,11.116-.335,19.009-.574,16.208-.362,38.3-.86,62.72-1.411l62.709-1.29c7.894-.1,14.346-.186,19.017-.248C482.233,98.763,484.722,98.848,484.731,99.049Z" transform="translate(-307.315 -98.774)"/>
        </g>
        <g id="Group_125" data-name="Group 125" transform="translate(-14.844 80.561)">
          <path id="Path_1139" data-name="Path 1139" class="cls-5" d="M491.312,107.082c-.009.2-2.595.288-7.268.271l-19.767-.146c-16.683-.123-39.725-.047-65.156.835-25.439.9-48.435,2.432-65.069,3.722l-19.706,1.525c-4.658.343-7.244.438-7.268.239s2.521-.674,7.145-1.36,11.332-1.544,19.64-2.447c16.615-1.815,39.65-3.677,65.156-4.577,25.495-.883,48.6-.635,65.3.013,8.352.32,15.1.693,19.765,1.07S491.323,106.883,491.312,107.082Z" transform="translate(-307.08 -104.572)"/>
        </g>
        <g id="Group_126" data-name="Group 126" transform="translate(-16.033 94.199)">
          <path id="Path_1140" data-name="Path 1140" class="cls-5" d="M488.567,111.3c.032.8-40.7,3.035-90.964,4.99s-91.053,2.893-91.084,2.095,40.69-3.035,90.972-4.99C447.756,111.435,488.538,110.5,488.567,111.3Z" transform="translate(-306.519 -111.011)"/>
        </g>
        <g id="Group_127" data-name="Group 127" transform="translate(-13.567 106.395)">
          <path id="Path_1141" data-name="Path 1141" class="cls-5" d="M480.481,117.378c0,.2-2.419.422-6.8.65-4.56.2-10.847.479-18.536.816-15.651.638-37.263,1.587-61.108,3.042s-45.42,3.16-61.031,4.436l-18.5,1.453c-4.374.305-6.8.381-6.825.182s2.364-.652,6.7-1.3,10.631-1.472,18.42-2.37c15.579-1.8,37.159-3.823,61.055-5.291s45.554-2.082,61.235-2.194c7.841-.059,14.188-.021,18.572.106S480.479,117.177,480.481,117.378Z" transform="translate(-307.683 -116.768)"/>
        </g>
        <g id="Group_128" data-name="Group 128" transform="translate(-11.373 126.196)">
          <path id="Path_1142" data-name="Path 1142" class="cls-5" d="M349.141,127.192c.019.8-9.017,1.646-20.178,1.889s-20.227-.212-20.244-1.012,9.017-1.646,20.18-1.887S349.124,126.393,349.141,127.192Z" transform="translate(-308.719 -126.116)"/>
        </g>
        <g id="Group_129" data-name="Group 129" transform="translate(-19.873 138.835)">
          <path id="Path_1143" data-name="Path 1143" class="cls-5" d="M351.505,134.343c-.047.811-10.523.843-23.412.665s-23.364-.527-23.387-1.339c-.025-.79,10.462-1.754,23.427-1.561S351.554,133.555,351.505,134.343Z" transform="translate(-304.706 -132.083)"/>
        </g>
        <g id="Group_130" data-name="Group 130" transform="translate(-13.489 151.469)">
          <path id="Path_1144" data-name="Path 1144" class="cls-5" d="M357.517,140.556c-.061.816-11.2.6-24.908.415-13.711-.21-24.851-.316-24.889-1.133-.04-.782,11.116-1.976,24.931-1.767C346.462,138.26,357.58,139.777,357.517,140.556Z" transform="translate(-307.72 -138.048)"/>
        </g>
      </g>
    </g>
    <path id="Path_1146" data-name="Path 1146" class="cls-6" d="M365.23,235.031l2.262-11.843-24.328-9.972-3.823,17.6,1.341.216c5.437,2.6,31.951,15.168,36.119,15.537C381.451,246.976,365.23,235.031,365.23,235.031Z" transform="translate(28.273 198.345)"/>
    <path id="Path_1147" data-name="Path 1147" class="cls-6" d="M356.824,230.808l-2.18-11.858h-26.2l2.747,17.409,1.383.078c5.99.341,35.154,1.925,39.157.68C376.2,235.728,356.824,230.808,356.824,230.808Z" transform="translate(16.094 204.757)"/>
    <path id="Path_1148" data-name="Path 1148" class="cls-7" d="M326.516,116.8c-2.7,24.7,1.142,136.6,3.271,225.685l35.56-.477s-.421-166.636.669-182.563l.822-38.439Z" transform="translate(12.895 90.537)"/>
    <path id="Path_1149" data-name="Path 1149" class="cls-7" d="M355.614,178.251c-3.794-13.692-6.907-24.66-6.907-24.66l1.938-35.234,27.176,2.141s25.942,95.242,20.165,119.358c-6.929,28.913-27.248,99.352-27.248,99.352l-31.4-8.822s24.874-95.448,24.685-101.6c-.114-3.739-2.542-29.362-8.4-50.532" transform="translate(28.266 92.274)"/>
    <g id="Group_133" data-name="Group 133" transform="translate(475.004 119.466)">
      <path id="Path_1150" data-name="Path 1150" class="cls-8" d="M393.7,79.552c-.3.261-1.353-.464-2.341-1.62s-1.544-2.3-1.239-2.561,1.349.464,2.338,1.618S394.008,79.292,393.7,79.552Z" transform="translate(-390.04 -75.318)"/>
    </g>
    <g id="Group_134" data-name="Group 134" transform="translate(478.906 115.839)">
      <path id="Path_1151" data-name="Path 1151" class="cls-8" d="M395.4,78.642c-.28.277-1.5-.521-2.476-1.976s-1.248-2.889-.883-3.044,1.19.907,2.089,2.237S395.688,78.36,395.4,78.642Z" transform="translate(-391.882 -73.605)"/>
    </g>
    <g id="Group_135" data-name="Group 135" transform="translate(482.628 112.896)">
      <path id="Path_1152" data-name="Path 1152" class="cls-8" d="M397.153,77.253c-.28.277-1.506-.521-2.476-1.976s-1.246-2.889-.885-3.044,1.195.9,2.091,2.237S397.446,76.971,397.153,77.253Z" transform="translate(-393.639 -72.216)"/>
    </g>
    <g id="Group_136" data-name="Group 136" transform="translate(454.602 130.25)">
      <path id="Path_1153" data-name="Path 1153" class="cls-2" d="M380.408,108.179l3.124-3.961a41.485,41.485,0,0,0,1.517-7.882,12.16,12.16,0,0,0-.227-3.982,18.37,18.37,0,0,0-1.559-4.715c-.8-1.294.341-2.908,1.6-2.4s3.563,4.025,4.215,8.913,4.584-1.718,6.06-4.1,6.374-9.525,7.448-9.636c1.576-.163,2.046,1.542.519,3.883-1.544,2.37-5.62,9.7-4.351,10.445,1.248.733,8.591-11.491,8.591-11.491s1.157-2.877,2.648-2.065c2.694,1.464-6.05,13.864-6.912,15.022-.6.807.752,1.665,1.347.765.616-.926,7.049-12.37,9.8-10.907,2.114,1.123-7.1,10.269-7.142,13.41s6.3-7.668,8.271-6.511c.735.43,1.229.856-3.29,6.52-4.628,5.8-19.665,19.411-19.665,19.411l-12-10.722" transform="translate(-380.408 -80.409)"/>
    </g>
    <g id="Group_146" data-name="Group 146" transform="translate(337.839 35.836)">
      <g id="Group_144" data-name="Group 144">
        <g id="Group_143" data-name="Group 143" transform="translate(14.406 1.52)">
          <path id="Path_1154" data-name="Path 1154" class="cls-2" d="M361.634,103.569c-.356-2.646,1.029-13.658,1.029-13.658s9.858-.743,10.769-10.724,1.034-33.063,1.034-33.063l-17.617-9.57L336.684,51.212l-4.6,10.945,6.041,26.037-.023,13.12Z" transform="translate(-332.085 -36.554)"/>
          <g id="Group_138" data-name="Group 138" transform="translate(36.231 23.323)">
            <path id="Path_1155" data-name="Path 1155" class="cls-8" d="M352.788,49.247a1.248,1.248,0,1,1-1.207-1.322A1.26,1.26,0,0,1,352.788,49.247Z" transform="translate(-347.954 -47.163)"/>
            <g id="Group_137" data-name="Group 137">
              <path id="Path_1156" data-name="Path 1156" class="cls-8" d="M354.109,49.2c-.165.161-1.061-.674-2.4-.792-1.339-.138-2.368.513-2.5.322-.066-.085.11-.383.561-.68a3.252,3.252,0,0,1,3.917.375C354.071,48.8,354.189,49.132,354.109,49.2Z" transform="translate(-349.19 -47.565)"/>
            </g>
          </g>
          <g id="Group_140" data-name="Group 140" transform="translate(21.347 22.833)">
            <path id="Path_1157" data-name="Path 1157" class="cls-8" d="M345.288,47.977a1.3,1.3,0,0,1,.271,1.79,1.228,1.228,0,0,1-1.745.275,1.3,1.3,0,0,1-.269-1.79A1.227,1.227,0,0,1,345.288,47.977Z" transform="translate(-340.886 -46.891)"/>
            <g id="Group_139" data-name="Group 139">
              <path id="Path_1158" data-name="Path 1158" class="cls-8" d="M347.082,48.97c-.165.161-1.061-.674-2.4-.792-1.339-.138-2.37.513-2.5.324-.066-.085.11-.386.561-.68a3.2,3.2,0,0,1,2.019-.474,3.238,3.238,0,0,1,1.9.847C347.044,48.572,347.162,48.9,347.082,48.97Z" transform="translate(-342.163 -47.333)"/>
            </g>
          </g>
          <g id="Group_141" data-name="Group 141" transform="translate(30.746 24.242)">
            <path id="Path_1159" data-name="Path 1159" class="cls-8" d="M346.6,60.026a9.361,9.361,0,0,1,2.207-.2c.341,0,.684-.044.769-.307a2,2,0,0,0-.152-1.127q-.394-1.369-.83-2.887c-.574-2.053-1.068-3.919-1.4-5.279A9.945,9.945,0,0,1,346.759,48a9.89,9.89,0,0,1,.784,2.122c.421,1.332.97,3.184,1.544,5.236l.792,2.9a2.274,2.274,0,0,1,.089,1.438.824.824,0,0,1-.58.47,2.249,2.249,0,0,1-.578.036A9.357,9.357,0,0,1,346.6,60.026Z" transform="translate(-346.6 -47.999)"/>
          </g>
          <g id="Group_142" data-name="Group 142" class="cls-9" transform="translate(17.976 31.181)">
            <path id="Path_1160" data-name="Path 1160" class="cls-10" d="M347.887,54.978c-.417,1.059-2.3,1.224-4.26.538s-3.334-2-3.008-3.088,2.294-1.521,4.349-.8S348.3,53.927,347.887,54.978Z" transform="translate(-340.571 -51.275)"/>
          </g>
          <path id="Path_1161" data-name="Path 1161" class="cls-10" d="M353.263,64.33a23.911,23.911,0,0,1-12.771-4.9s2.7,7.439,12.48,7.346Z" transform="translate(-322.684 -10.973)"/>
        </g>
        <path id="Path_1162" data-name="Path 1162" class="cls-11" d="M330.164,38.331" transform="translate(-319.827 -33.046)"/>
        <path id="Path_1163" data-name="Path 1163" class="cls-11" d="M333.379,73.929c1.953,6.346,4.266,14.931,4.266,14.931,1.451,2.766,1.938-5.948,1.938-5.948s1.243-8.377.114-11.642c0,0-4.967,1.65-6.086-7.5-.551-4.518,6.1-6.685,7.909-1.216l4.15.394s.337-17.083,9.9-13.936c0,0,6.937,4.393,11.072,1.705s3.836-3.62,3.836-3.62,1.989,4.495,7.323,1.542c0,0,1.324-5.181-1.284-7.522S350,32.309,342.174,38.333C342.174,38.333,325.455,48.181,333.379,73.929Z" transform="translate(-318.616 -35.836)"/>
        <path id="Path_1164" data-name="Path 1164" class="cls-11" d="M339.326,53.048a7.858,7.858,0,0,0-6.022-.8,7.152,7.152,0,0,0-4.575,4.027,12.217,12.217,0,0,0-.536,5.842,24.357,24.357,0,0,1,.184,5.91,6.048,6.048,0,0,1-3.092,4.717,2.9,2.9,0,0,0,3.571-1.22q-.521,1.122-1.044,2.241a9.159,9.159,0,0,0,7.253-2.474,9.675,9.675,0,0,0,2.917-7.248c-.074-2.017-.775-3.972-.824-5.99S338,53.73,339.9,53.186" transform="translate(-325.284 -17.799)"/>
        <path id="Path_1165" data-name="Path 1165" class="cls-11" d="M336.1,48.583s-.091,27.223,15.692,30.606c20.926,4.484,18.189-17.553,18.189-17.553s-14.033-.072-18.32-1.807-11.953-6.958-11.383-11.5Z" transform="translate(-313.192 -21.862)"/>
      </g>
      <g id="Group_145" data-name="Group 145" transform="translate(17.9 25.395)">
        <path id="Path_1166" data-name="Path 1166" class="cls-10" d="M337.637,54.472c-.038-.025-.138.112-.377.244a1.417,1.417,0,0,1-1.078.089c-.9-.275-1.72-1.659-1.851-3.192a5.031,5.031,0,0,1,.28-2.15,1.7,1.7,0,0,1,1.021-1.207.73.73,0,0,1,.877.354c.125.231.083.4.127.417.025.019.172-.155.083-.5a.938.938,0,0,0-.358-.513,1.08,1.08,0,0,0-.813-.169,2.066,2.066,0,0,0-1.432,1.415,5.16,5.16,0,0,0-.36,2.408c.153,1.712,1.106,3.266,2.326,3.548a1.521,1.521,0,0,0,1.309-.309C337.635,54.679,337.667,54.485,337.637,54.472Z" transform="translate(-333.735 -47.825)"/>
      </g>
    </g>
    <path id="Path_1167" data-name="Path 1167" class="cls-12" d="M346.388,55.661c-1.18-.862,3.262,2.141,5.689,2.222A3.249,3.249,0,0,1,348.1,58.9C345.592,57.718,346.388,55.661,346.388,55.661Z" transform="translate(35.935 21.994)"/>
    <path id="Path_1168" data-name="Path 1168" class="cls-6" d="M383.833,125.627s-7.4-.9-7.721-4.724,6.189-15.971,2.339-17.081-11.976,1.724-18.208,17.215-20.028,19.144-26.026,18.089c-10.646-1.873-31.764,20.934-10.076,46.107,25.031,29.051,44.143-.856,52.614-10.523s18.28-8.043,19.009-11.955c.9-4.846-6.069-3.806-6.069-3.806-1.618-3.453-9.839-14.423-.741-21.426C392.485,134.8,383.833,125.627,383.833,125.627Z" transform="translate(0.744 75.782)"/>
    <path id="Path_1169" data-name="Path 1169" class="cls-13" d="M345.184,148.757l79.254-64.613,13.073,6.437-83.795,69.741Z" transform="translate(34.807 54.017)"/>
    <g id="Group_147" data-name="Group 147" class="cls-14" transform="translate(324.315 209.143)">
      <path id="Path_1170" data-name="Path 1170" class="cls-8" d="M320.15,150.161c2.163,6.2,4.567,12.745,9.659,16.746a21.521,21.521,0,0,0,13.529,4.143,26.274,26.274,0,0,0,13.77-3.876,30.272,30.272,0,0,0,10.129-11.345,64.645,64.645,0,0,0,5.378-14.5,36.772,36.772,0,0,0,1.58-10.964,14.807,14.807,0,0,0-4.052-10.025c-2.637-2.538-6.8-3.544-10.013-1.834-3.853,2.053-5.266,7.068-8.689,9.809-2.671,2.137-6.244,2.635-9.631,2.66s-6.816-.337-10.129.381a16.517,16.517,0,0,0-11.387,9.411,17.253,17.253,0,0,0,.676,14.99" transform="translate(-318.899 -117.654)"/>
    </g>
    <path id="Path_1171" data-name="Path 1171" class="cls-13" d="M390.535,105.568,380.5,93.257s.136-.606,6-5.149c10.428-8.081,33.874-18.314,35.16-12.25.864,4.078-29.335,31.908-29.335,31.908" transform="translate(74.298 42.7)"/>
    <path id="Path_1172" data-name="Path 1172" class="cls-8" d="M325.9,131.867l9.592,13.111,3.247-2.036-11.162-13.5Z" transform="translate(13.24 104.669)"/>
    <path id="Path_1173" data-name="Path 1173" class="cls-8" d="M332.994,126.685l9.044,9.812,2.208-1.9-8.462-10.311Z" transform="translate(21.176 98.905)"/>
    <g id="Group_148" data-name="Group 148" transform="translate(341.029 128.305)">
      <path id="Path_1174" data-name="Path 1174" class="cls-8" d="M462.954,79.494c.252.309-30.025,25.514-67.619,56.285s-68.288,55.48-68.543,55.17,30.017-25.507,67.623-56.291S462.7,79.184,462.954,79.494Z" transform="translate(-326.79 -79.491)"/>
    </g>
    <g id="Group_149" data-name="Group 149" transform="translate(343.059 130.912)">
      <path id="Path_1175" data-name="Path 1175" class="cls-8" d="M463.912,80.725c.254.309-30.023,25.514-67.619,56.285S328,192.489,327.75,192.18s30.017-25.509,67.625-56.291S463.66,80.415,463.912,80.725Z" transform="translate(-327.748 -80.722)"/>
    </g>
    <g id="Group_150" data-name="Group 150" transform="translate(345.556 132.639)">
      <path id="Path_1176" data-name="Path 1176" class="cls-8" d="M464.252,81.539c.256.307-29.831,25.872-67.193,57.1s-67.873,56.3-68.13,55.99,29.824-25.867,67.2-57.1S464,81.232,464.252,81.539Z" transform="translate(-328.927 -81.537)"/>
    </g>
    <g id="Group_151" data-name="Group 151" transform="translate(482.58 131.729)">
      <path id="Path_1177" data-name="Path 1177" class="cls-8" d="M397.28,85.341c-.3.261-1.351-.464-2.339-1.618s-1.546-2.3-1.241-2.563,1.352.466,2.341,1.62S397.585,85.081,397.28,85.341Z" transform="translate(-393.616 -81.107)"/>
    </g>
    <g id="Group_152" data-name="Group 152" transform="translate(486.484 128.103)">
      <path id="Path_1178" data-name="Path 1178" class="cls-8" d="M398.977,84.432c-.282.275-1.508-.521-2.478-1.978s-1.248-2.887-.885-3.042,1.193.9,2.091,2.235S399.267,84.148,398.977,84.432Z" transform="translate(-395.459 -79.395)"/>
    </g>
    <g id="Group_153" data-name="Group 153" transform="translate(490.207 125.16)">
      <path id="Path_1179" data-name="Path 1179" class="cls-8" d="M400.731,83.041c-.28.277-1.5-.519-2.476-1.976s-1.248-2.889-.883-3.042,1.19.9,2.089,2.235S401.023,82.759,400.731,83.041Z" transform="translate(-397.217 -78.006)"/>
    </g>
    <path id="Path_1180" data-name="Path 1180" class="cls-8" d="M347.99,67.541s13.8,64.609-1.739,97.939l15.005-12.235s9.629-54.751-7.342-85.4Z" transform="translate(36 35.452)"/>
    <path id="Path_1181" data-name="Path 1181" class="cls-8" d="M344.6,248.647l-.46-42.65,2.992-11.866,5.989,56.909Z" transform="translate(33.641 177.004)"/>
    <g id="Group_154" data-name="Group 154" transform="translate(338.012 140.189)">
      <path id="Path_1182" data-name="Path 1182" class="cls-5" d="M339.33,85.105c.832.305-4.15,14.366-8.083,32.2a211.225,211.225,0,0,0-3.817,23.029c-.642,5.944-.811,9.667-1.248,9.682-.362.015-.924-3.726-.8-9.814a123.216,123.216,0,0,1,3.031-23.518C332.418,98.554,338.673,84.828,339.33,85.105Z" transform="translate(-325.366 -85.101)"/>
    </g>
  </g>
</svg>
